<svg xmlns="http://www.w3.org/2000/svg" width="32" height="32" fill="none"><g clip-path="url(#a)"><g clip-path="url(#b)"><path fill="url(#c)" fill-rule="evenodd" d="M29.5 16c0 7.456-6.044 13.5-13.5 13.5S2.5 23.456 2.5 16 8.544 2.5 16 2.5 29.5 8.544 29.5 16Zm2.5 0c0 8.837-7.163 16-16 16S0 24.837 0 16 7.163 0 16 0s16 7.163 16 16Zm-18.967 4.484v-8.843h5.491c.486 0 .928.08 1.324.242.403.154.749.377 1.037.667.287.284.508.63.662 1.035.16.407.24.855.24 1.345v2.265c0 .496-.08.948-.24 1.354-.154.4-.375.745-.663 1.035a3.093 3.093 0 0 1-1.036.668 3.614 3.614 0 0 1-1.324.232h-5.49Zm-2.502-8.843v10.092a1.304 1.304 0 0 0 .355.909c.115.11.25.197.403.261.154.065.32.097.5.097H18.523c.825 0 1.59-.145 2.293-.435a5.554 5.554 0 0 0 1.823-1.2 5.531 5.531 0 0 0 1.2-1.839 6.03 6.03 0 0 0 .441-2.331V14.93c0-.838-.147-1.612-.441-2.322a5.405 5.405 0 0 0-1.2-1.838 5.477 5.477 0 0 0-1.823-1.21 5.953 5.953 0 0 0-2.286-.435h-10.5l-1.406 2.516h3.906Z" clip-rule="evenodd"/></g></g><defs><clipPath id="a"><path fill="#fff" d="M0 0h32v32H0z"/></clipPath><clipPath id="b"><path fill="#fff" d="M0 0h32v32H0z"/></clipPath><linearGradient id="c" x1="4.625" x2="28.5" y1="3.906" y2="27.781" gradientUnits="userSpaceOnUse"><stop stop-color="#DA79F0"/><stop offset=".593" stop-color="#C836E8"/><stop offset="1" stop-color="#C836E8"/></linearGradient></defs></svg>