<svg width="333" height="86" viewBox="0 0 333 86" fill="none" xmlns="http://www.w3.org/2000/svg">
<g clip-path="url(#clip0_205_4171)">
<path d="M129.294 38.5836C135.155 38.5836 137.769 42.4064 138.64 45.831L146.878 42.8046C145.294 36.5925 139.591 30.0619 129.215 30.0619C118.126 30.0619 109.492 38.6632 109.492 50.6095C109.492 62.3965 118.126 71.2368 129.452 71.2368C139.591 71.2368 145.373 64.6265 147.195 58.5737L139.116 55.627C138.244 58.5737 135.472 62.7948 129.452 62.7948C123.67 62.7948 118.68 58.4144 118.68 50.6095C118.68 42.8046 123.67 38.5836 129.294 38.5836ZM161.374 47.2646C161.533 42.3268 164.305 38.5039 169.374 38.5039C175.156 38.5039 177.295 42.3268 177.295 47.1053V70.0422H186.483V45.5124C186.483 36.9907 181.889 30.1415 172.384 30.1415C168.345 30.1415 163.988 31.5751 161.374 34.9997V12.3813H152.186V70.0422H161.374V47.2646ZM192.124 59.5294C192.124 65.6619 197.114 71.2368 205.193 71.2368C211.451 71.2368 215.252 68.0511 217.074 65.1044C217.074 68.2104 217.391 69.8033 217.47 70.0422H226.025C225.945 69.644 225.549 67.3344 225.549 63.8301V44.5567C225.549 36.8314 221.035 30.0619 209.154 30.0619C199.649 30.0619 193.629 36.035 192.916 42.725L201.312 44.6364C201.708 40.7339 204.401 37.6279 209.233 37.6279C214.302 37.6279 216.52 40.2561 216.52 43.5214C216.52 44.8753 215.886 45.9903 213.668 46.3089L203.767 47.8221C197.193 48.7778 192.124 52.6006 192.124 59.5294ZM206.936 63.9894C203.292 63.9894 201.312 61.6001 201.312 58.9719C201.312 55.7863 203.609 54.1934 206.46 53.7156L216.52 52.2024V53.9545C216.52 61.5205 212.084 63.9894 206.936 63.9894ZM269.607 31.2565H257.409L242.597 46.946V12.3813H233.488V70.0422H242.597V59.2109L247.349 54.1934L258.676 70.0422H269.923L253.765 47.6628L269.607 31.2565ZM295.978 31.0176C295.582 30.9379 294.632 30.7787 293.523 30.7787C288.454 30.7787 284.176 33.2476 282.355 37.4686V31.2565H273.404V70.0422H282.592V51.5652C282.592 44.3178 285.84 40.1764 292.968 40.1764C293.919 40.1764 294.949 40.2561 295.978 40.4153V31.0176ZM298.181 59.5294C298.181 65.6619 303.171 71.2368 311.25 71.2368C317.508 71.2368 321.31 68.0511 323.131 65.1044C323.131 68.2104 323.448 69.8033 323.527 70.0422H332.082C332.003 69.644 331.607 67.3344 331.607 63.8301V44.5567C331.607 36.8314 327.092 30.0619 315.211 30.0619C305.706 30.0619 299.686 36.035 298.973 42.725L307.369 44.6364C307.765 40.7339 310.458 37.6279 315.29 37.6279C320.359 37.6279 322.577 40.2561 322.577 43.5214C322.577 44.8753 321.943 45.9903 319.726 46.3089L309.825 47.8221C303.25 48.7778 298.181 52.6006 298.181 59.5294ZM312.993 63.9894C309.349 63.9894 307.369 61.6001 307.369 58.9719C307.369 55.7863 309.666 54.1934 312.518 53.7156L322.577 52.2024V53.9545C322.577 61.5205 318.141 63.9894 312.993 63.9894Z" fill="white"/>
<path d="M85.5305 43C85.5305 19.2518 66.3839 0 42.7653 0C19.1467 0 0 19.2518 0 43C0 66.7482 19.1467 86 42.7653 86C66.3839 86 85.5305 66.7482 85.5305 43Z" fill="url(#paint0_linear_205_4171)"/>
<path d="M23.1491 44.8354L52.3 15.7262C52.8445 15.1824 53.7211 15.8442 53.3533 16.5216L42.5036 36.5165C42.2613 36.9622 42.5825 37.5064 43.0877 37.5064H61.8378C62.4419 37.5064 62.7334 38.2502 62.2918 38.6648L29.4348 69.4983C28.8457 70.0512 27.9688 69.2721 28.4418 68.6163L43.9956 47.0416C44.3144 46.5993 44.0002 45.9795 43.4568 45.9795H23.6181C23.024 45.9795 22.7276 45.2564 23.1491 44.8354Z" fill="white"/>
</g>
<defs>
<linearGradient id="paint0_linear_205_4171" x1="42.7653" y1="0" x2="42.7653" y2="86" gradientUnits="userSpaceOnUse">
<stop stop-color="#7BCBD4"/>
<stop offset="1" stop-color="#29C6B7"/>
</linearGradient>
<clipPath id="clip0_205_4171">
<rect width="332.138" height="86" fill="white"/>
</clipPath>
</defs>
</svg>
