<svg width="230" height="190" viewBox="0 0 230 190" fill="none" xmlns="http://www.w3.org/2000/svg">
<g clip-path="url(#clip0_204_4128)">
<path d="M25.9344 87.7838C30.0409 87.7838 33.2273 88.8687 35.4937 91.0384C37.7604 93.2081 39.0188 95.6731 39.269 98.4333H34.9859C34.5002 96.3374 33.5288 94.6769 32.0717 93.4518C30.6293 92.2267 28.5982 91.6142 25.9783 91.6142C22.7844 91.6142 20.2013 92.7433 18.229 95.0016C16.2715 97.2451 15.2927 100.691 15.2927 105.341C15.2927 109.149 16.1758 112.241 17.942 114.617C19.7229 116.979 22.3721 118.16 25.8897 118.16C29.1277 118.16 31.5931 116.912 33.2858 114.418C34.1836 113.104 34.8533 111.377 35.2948 109.237H39.5779C39.1952 112.662 37.9294 115.532 35.7805 117.85C33.2049 120.64 29.7314 122.034 25.3601 122.034C21.5922 122.034 18.4278 120.89 15.867 118.603C12.4967 115.577 10.8115 110.905 10.8115 104.588C10.8115 99.7914 12.0773 95.8578 14.6088 92.7876C17.3464 89.4519 21.1214 87.7838 25.9344 87.7838Z" fill="white"/>
<path d="M47.8133 110.697C47.9164 112.542 48.3506 114.04 49.1159 115.191C50.573 117.346 53.1414 118.424 56.821 118.424C58.4695 118.424 59.9707 118.188 61.3248 117.715C63.9447 116.8 65.2546 115.162 65.2546 112.8C65.2546 111.029 64.7027 109.767 63.5988 109.014C62.4802 108.276 60.7287 107.634 58.3443 107.088L53.9509 106.092C51.0809 105.442 49.0497 104.727 47.8575 103.944C45.7969 102.586 44.7666 100.557 44.7666 97.8558C44.7666 94.9333 45.7748 92.5349 47.7912 90.6604C49.8076 88.7859 52.663 87.8486 56.3574 87.8486C59.7572 87.8486 62.6421 88.6752 65.012 90.3283C67.3964 91.9667 68.5886 94.594 68.5886 98.2104H64.4601C64.2393 96.4687 63.7683 95.1329 63.0471 94.2031C61.7078 92.5057 59.4338 91.657 56.2252 91.657C53.6348 91.657 51.773 92.2031 50.6397 93.2953C49.5064 94.3876 48.9397 95.657 48.9397 97.1034C48.9397 98.6975 49.6021 99.8635 50.9267 100.602C51.7951 101.074 53.7599 101.664 56.8212 102.373L61.3691 103.413C63.5622 103.915 65.2547 104.601 66.4467 105.472C68.5073 106.993 69.5376 109.199 69.5376 112.092C69.5376 115.694 68.2276 118.27 65.6078 119.819C63.0026 121.369 59.9707 122.144 56.5121 122.144C52.4793 122.144 49.3221 121.111 47.0406 119.044C44.7593 116.993 43.6407 114.211 43.6849 110.698H47.8133V110.697Z" fill="white"/>
<path d="M77.9266 110.697C78.0297 112.542 78.4638 114.04 79.2292 115.191C80.6863 117.346 83.2547 118.424 86.9343 118.424C88.5827 118.424 90.084 118.188 91.4381 117.715C94.0579 116.8 95.3679 115.162 95.3679 112.8C95.3679 111.029 94.8159 109.767 93.7121 109.014C92.5935 108.276 90.842 107.634 88.4576 107.088L84.0642 106.092C81.1942 105.442 79.163 104.727 77.9708 103.944C75.9102 102.586 74.88 100.557 74.88 97.8558C74.88 94.9333 75.8882 92.5349 77.9046 90.6604C79.921 88.7859 82.7764 87.8486 86.4707 87.8486C89.8705 87.8486 92.7554 88.6752 95.1253 90.3283C97.5097 91.9667 98.7018 94.594 98.7018 98.2104H94.5733C94.3526 96.4687 93.8816 95.1329 93.1604 94.2031C91.821 92.5057 89.5471 91.657 86.3385 91.657C83.7481 91.657 81.8862 92.2031 80.753 93.2953C79.6197 94.3876 79.053 95.657 79.053 97.1034C79.053 98.6975 79.7153 99.8635 81.04 100.602C81.9084 101.074 83.8732 101.664 86.9345 102.373L91.4824 103.413C93.6755 103.915 95.368 104.601 96.56 105.472C98.6206 106.993 99.6508 109.199 99.6508 112.092C99.6508 115.694 98.3409 118.27 95.721 119.819C93.1159 121.369 90.084 122.144 86.6254 122.144C82.5926 122.144 79.4354 121.111 77.1539 119.044C74.8726 116.993 73.754 114.211 73.7981 110.698H77.9266V110.697Z" fill="white"/>
<path d="M12.1553 145.344H18.4471L27.7639 172.842L37.0143 145.344H43.2403V177.868H39.0677V158.672C39.0677 158.008 39.0824 156.908 39.1118 155.373C39.1413 153.838 39.156 152.192 39.156 150.436L29.9056 177.867H25.5563L16.2396 150.436V151.432C16.2396 152.229 16.2543 153.447 16.2838 155.085C16.3279 156.709 16.35 157.904 16.35 158.672V177.868H12.1553L12.1553 145.344Z" fill="white"/>
<path d="M63.97 144.462C69.6955 144.462 73.9343 146.307 76.6864 149.997C78.8353 152.875 79.9097 156.558 79.9097 161.045C79.9097 165.901 78.6807 169.938 76.2227 173.155C73.338 176.934 69.2243 178.823 63.8817 178.823C58.8923 178.823 54.9699 177.17 52.1143 173.864C49.5681 170.676 48.2949 166.646 48.2949 161.776C48.2949 157.377 49.3841 153.613 51.5624 150.484C54.3589 146.47 58.4949 144.462 63.97 144.462ZM64.4116 174.883C68.2826 174.883 71.0791 173.495 72.8009 170.72C74.5377 167.931 75.4061 164.728 75.4061 161.112C75.4061 157.289 74.4052 154.211 72.4035 151.879C70.4166 149.547 67.6936 148.381 64.2347 148.381C60.8788 148.381 58.1412 149.54 56.0218 151.857C53.9023 154.16 52.8426 157.562 52.8426 162.064C52.8426 165.665 53.7478 168.706 55.5582 171.185C57.3832 173.65 60.3346 174.883 64.4116 174.883Z" fill="white"/>
<path d="M97.5742 174.106C99.0607 174.106 100.282 173.951 101.239 173.641C102.946 173.065 104.345 171.958 105.434 170.32C106.302 169.006 106.928 167.324 107.31 165.272C107.531 164.047 107.642 162.91 107.642 161.862C107.642 157.833 106.839 154.704 105.235 152.475C103.644 150.248 101.075 149.135 97.5285 149.135H89.735V174.108H97.5727L97.5742 174.106ZM85.321 145.346H98.4569C102.916 145.346 106.375 146.933 108.833 150.106C111.026 152.97 112.123 156.638 112.123 161.11C112.123 164.564 111.475 167.685 110.18 170.475C107.898 175.405 103.976 177.87 98.4125 177.87H85.3203V145.346L85.321 145.346Z" fill="white"/>
<path d="M122.563 145.344V165.447C122.563 167.808 123.004 169.771 123.887 171.336C125.197 173.697 127.405 174.878 130.511 174.878C134.234 174.878 136.766 173.601 138.105 171.048C138.826 169.66 139.187 167.793 139.187 165.446V145.344H143.647V163.609C143.647 167.609 143.11 170.686 142.035 172.841C140.063 176.767 136.339 178.73 130.864 178.73C125.389 178.73 121.672 176.767 119.715 172.841C118.641 170.686 118.104 167.609 118.104 163.609V145.344H122.563L122.563 145.344Z" fill="white"/>
<path d="M150.385 145.344H154.778V173.993H171.204V177.867H150.385L150.385 145.344Z" fill="white"/>
<path d="M175.971 145.344H199.616V149.329H180.254V159.204H198.159V162.967H180.254V173.993H199.947V177.868H175.971V145.344L175.971 145.344Z" fill="white"/>
<path d="M208.622 167.375C208.725 169.22 209.159 170.718 209.925 171.87C211.382 174.025 213.95 175.102 217.63 175.102C219.278 175.102 220.779 174.866 222.133 174.394C224.753 173.478 226.063 171.84 226.063 169.478C226.063 167.707 225.511 166.445 224.407 165.693C223.289 164.955 221.537 164.312 219.153 163.766L214.76 162.77C211.889 162.121 209.858 161.405 208.666 160.623C206.606 159.265 205.575 157.235 205.575 154.534C205.575 151.612 206.583 149.213 208.6 147.339C210.616 145.464 213.472 144.527 217.166 144.527C220.566 144.527 223.451 145.353 225.821 147.007C228.205 148.645 229.397 151.272 229.397 154.889H225.269C225.048 153.147 224.577 151.811 223.856 150.881C222.516 149.184 220.242 148.335 217.034 148.335C214.443 148.335 212.582 148.881 211.448 149.974C210.315 151.066 209.748 152.335 209.748 153.782C209.748 155.376 210.411 156.542 211.735 157.28C212.604 157.752 214.569 158.342 217.63 159.051L222.178 160.092C224.371 160.593 226.063 161.28 227.255 162.151C229.316 163.671 230.346 165.877 230.346 168.771C230.346 172.372 229.036 174.948 226.416 176.497C223.811 178.047 220.779 178.822 217.321 178.822C213.288 178.822 210.131 177.789 207.849 175.723C205.568 173.671 204.449 170.889 204.493 167.376H208.622V167.375Z" fill="white"/>
<path fill-rule="evenodd" clip-rule="evenodd" d="M0 0H189.126V189.661H0V0ZM1.35086 1.35468V188.307H187.775V1.35468H1.35086Z" fill="white"/>
</g>
<defs>
<clipPath id="clip0_204_4128">
<rect width="230" height="190" fill="white"/>
</clipPath>
</defs>
</svg>
