<svg width="344" height="60" viewBox="0 0 344 60" fill="none" xmlns="http://www.w3.org/2000/svg">
<g clip-path="url(#clip0_205_4158)">
<mask id="mask0_205_4158" style="mask-type:luminance" maskUnits="userSpaceOnUse" x="0" y="0" width="344" height="60">
<path d="M0 0H343.279V60H0V0Z" fill="white"/>
</mask>
<g mask="url(#mask0_205_4158)">
<path d="M92.8695 19.5187C89.1662 19.5187 86.226 20.8875 84.4293 23.7337V9.28125H78.5488V47.6006H84.4293V32.9306C84.4293 27.3469 87.4778 25.0481 91.3434 25.0481C95.0467 25.0481 97.4441 27.2362 97.4441 31.3969V47.6006H103.323V30.795C103.323 23.6794 98.9683 19.5187 92.8695 19.5187ZM112.923 36.4331H134.595C134.703 35.6662 134.813 34.7906 134.813 33.9694C134.813 26.0869 129.259 19.5187 121.145 19.5187C112.597 19.5187 106.77 25.8131 106.77 33.915C106.77 42.1275 112.597 48.3112 121.58 48.3112C126.916 48.3112 131.001 46.0669 133.505 42.345L128.66 39.4987C127.354 41.415 124.903 42.8925 121.636 42.8925C117.28 42.8925 113.849 40.7025 112.923 36.4331ZM112.867 31.6144C113.685 27.51 116.681 24.8831 121.091 24.8831C124.63 24.8831 128.059 26.9081 128.876 31.6144H112.871H112.867ZM160.029 20.2312V24.1162C157.958 21.27 154.747 19.5187 150.499 19.5187C143.093 19.5187 136.942 25.7587 136.942 33.915C136.942 42.015 143.095 48.3112 150.499 48.3112C154.747 48.3112 157.96 46.56 160.029 43.6594V47.6006H165.91V20.2294H160.029V20.2312ZM151.425 42.675C146.525 42.675 142.822 39.0056 142.822 33.915C142.822 28.8244 146.525 25.1569 151.425 25.1569C156.326 25.1569 160.029 28.8244 160.029 33.915C160.029 39.0056 156.326 42.675 151.425 42.675ZM192.965 9.28125V24.1162C190.896 21.27 187.683 19.5187 183.435 19.5187C176.031 19.5187 169.878 25.7587 169.878 33.915C169.878 42.015 176.031 48.3112 183.435 48.3112C187.683 48.3112 190.896 46.56 192.965 43.6594V47.6006H198.846V9.28125H192.965ZM184.363 42.675C179.462 42.675 175.758 39.0056 175.758 33.915C175.758 28.8244 179.462 25.1569 184.363 25.1569C189.262 25.1569 192.965 28.8244 192.965 33.915C192.965 39.0056 189.262 42.675 184.363 42.675ZM204.338 47.6006H210.22V7.64062H204.338V47.6006ZM220.315 36.4331H241.987C242.095 35.6662 242.205 34.7906 242.205 33.9694C242.205 26.0869 236.651 19.5187 228.537 19.5187C219.989 19.5187 214.163 25.8131 214.163 33.915C214.163 42.1275 219.989 48.3112 228.972 48.3112C234.308 48.3112 238.392 46.0669 240.897 42.345L236.05 39.4987C234.744 41.415 232.295 42.8925 229.026 42.8925C224.672 42.8925 221.241 40.7025 220.315 36.4331ZM220.259 31.6144C221.077 27.51 224.073 24.8831 228.483 24.8831C232.022 24.8831 235.451 26.9081 236.269 31.6144H220.259ZM250.235 27.7837C250.235 25.815 252.087 24.8831 254.211 24.8831C256.444 24.8831 258.349 25.8675 259.33 28.0031L264.285 25.2112C262.378 21.5981 258.675 19.5187 254.211 19.5187C248.656 19.5187 244.246 22.7475 244.246 27.8944C244.246 37.6912 258.893 34.9556 258.893 39.8269C258.893 42.0169 256.878 42.8925 254.265 42.8925C251.27 42.8925 249.093 41.415 248.222 38.9512L243.157 41.9062C244.899 45.8475 248.821 48.3112 254.265 48.3112C260.145 48.3112 264.884 45.3562 264.884 39.8812C264.884 29.7562 250.235 32.7656 250.235 27.7837ZM272.324 27.7837C272.324 25.815 274.177 24.8831 276.3 24.8831C278.531 24.8831 280.438 25.8675 281.417 28.0031L286.372 25.2112C284.468 21.5981 280.764 19.5187 276.3 19.5187C270.746 19.5187 266.335 22.7475 266.335 27.8944C266.335 37.6912 280.983 34.9556 280.983 39.8269C280.983 42.0169 278.968 42.8925 276.354 42.8925C273.36 42.8925 271.18 41.415 270.309 38.9512L265.246 41.9062C266.988 45.8475 270.908 48.3112 276.354 48.3112C282.234 48.3112 286.971 45.3562 286.971 39.8812C286.971 29.7562 272.324 32.7656 272.324 27.7837ZM317.178 41.2875C321.258 41.2875 324.279 38.835 324.279 34.8131V22.2694H320.622V34.5206C320.622 36.3319 319.669 37.6894 317.178 37.6894C314.687 37.6894 313.732 36.3319 313.732 34.5206V22.2675H310.103V34.8131C310.103 38.835 313.124 41.2875 317.178 41.2875ZM328.101 22.2675V40.9125H331.758V22.2675H328.101Z" fill="white"/>
<path fill-rule="evenodd" clip-rule="evenodd" d="M330.305 13.3255H311.38C309.372 13.326 307.447 14.1278 306.027 15.5546C304.607 16.9814 303.809 18.9165 303.809 20.9343V39.9618C303.809 41.9796 304.607 43.9146 306.027 45.3414C307.447 46.7682 309.372 47.57 311.38 47.5705H330.305C332.313 47.57 334.238 46.7682 335.658 45.3414C337.077 43.9146 337.875 41.9796 337.876 39.9618V20.9362C337.876 19.9367 337.68 18.947 337.3 18.0236C336.92 17.1001 336.362 16.261 335.659 15.5541C334.956 14.8472 334.121 14.2864 333.203 13.9037C332.284 13.521 331.299 13.3258 330.305 13.3255ZM311.38 9.51929C309.888 9.51953 308.412 9.81499 307.034 10.3888C305.656 10.9626 304.405 11.8035 303.35 12.8634C302.296 13.9234 301.46 15.1817 300.889 16.5665C300.319 17.9513 300.025 19.4355 300.025 20.9343V39.9618C300.025 41.4606 300.319 42.9447 300.889 44.3295C301.46 45.7143 302.296 46.9727 303.35 48.0326C304.405 49.0926 305.656 49.9335 307.034 50.5073C308.412 51.0811 309.888 51.3765 311.38 51.3768H330.305C331.796 51.3768 333.273 51.0815 334.651 50.5078C336.029 49.9342 337.281 49.0933 338.336 48.0333C339.39 46.9733 340.226 45.7149 340.797 44.33C341.368 42.9451 341.661 41.4607 341.661 39.9618V20.9362C341.661 19.4371 341.368 17.9525 340.798 16.5674C340.227 15.1823 339.391 13.9236 338.336 12.8634C337.282 11.8032 336.03 10.9622 334.651 10.3884C333.273 9.81462 331.796 9.51929 330.305 9.51929H311.38Z" fill="white"/>
<path fill-rule="evenodd" clip-rule="evenodd" d="M311.38 13.3255H330.305C332.313 13.326 334.238 14.1278 335.658 15.5546C337.077 16.9814 337.875 18.9165 337.876 20.9343V39.9618C337.875 41.9796 337.077 43.9146 335.658 45.3414C334.238 46.7682 332.313 47.57 330.305 47.5705H311.38C309.372 47.57 307.447 46.7682 306.027 45.3414C304.607 43.9146 303.809 41.9796 303.809 39.9618V20.9362C303.809 19.9367 304.004 18.947 304.385 18.0236C304.765 17.1001 305.323 16.261 306.026 15.5541C306.729 14.8472 307.563 14.2864 308.482 13.9037C309.401 13.521 310.385 13.3258 311.38 13.3255ZM300.025 20.9343C300.025 19.4355 300.319 17.9513 300.889 16.5665C301.46 15.1817 302.296 13.9234 303.35 12.8634C304.405 11.8035 305.656 10.9626 307.034 10.3888C308.412 9.81499 309.888 9.51953 311.38 9.51929H330.305C331.796 9.51929 333.273 9.81456 334.651 10.3882C336.029 10.9619 337.281 11.8028 338.336 12.8628C339.39 13.9228 340.226 15.1812 340.797 16.5661C341.368 17.951 341.661 19.4353 341.661 20.9343V39.9618C341.661 41.4607 341.368 42.9451 340.797 44.33C340.226 45.7149 339.39 46.9733 338.336 48.0333C337.281 49.0933 336.029 49.9342 334.651 50.5078C333.273 51.0815 331.796 51.3768 330.305 51.3768H311.38C309.888 51.3765 308.412 51.0811 307.034 50.5073C305.656 49.9335 304.405 49.0926 303.35 48.0326C302.296 46.9727 301.46 45.7143 300.889 44.3295C300.319 42.9447 300.025 41.4606 300.025 39.9618V20.9362V20.9343Z" fill="white"/>
<path d="M12.1171 37.2806L48.5345 25.0593C47.8069 20.4843 47.2882 17.4281 46.6875 15.0956C46.0401 12.5868 45.527 11.9156 45.3256 11.6831C44.6234 10.8753 43.7491 10.237 42.7678 9.81557C42.4842 9.69369 41.6894 9.41057 39.1186 9.5662C36.3984 9.7312 32.8276 10.2899 27.1728 11.1899C21.5199 12.0899 17.9509 12.6693 15.3148 13.3556C12.8204 14.0062 12.1507 14.5237 11.9193 14.7262C11.1171 15.4331 10.4828 16.3106 10.063 17.2968C9.94173 17.5818 9.66002 18.3806 9.81487 20.9662C9.97905 23.6999 10.535 27.2906 11.4305 32.9737C11.6805 34.5674 11.9063 35.9924 12.1171 37.2806Z" fill="url(#paint0_linear_205_4158)"/>
<path fill-rule="evenodd" clip-rule="evenodd" d="M2.07622 34.4625C0.344901 23.4675 -0.522624 17.97 1.35422 13.5562C2.33259 11.2542 3.81455 9.20345 5.68997 7.55622C9.28507 4.40059 14.7533 3.53059 25.6897 1.78872C36.6298 0.0449673 42.098 -0.825033 46.4916 1.06122C48.7809 2.04482 50.8202 3.53421 52.458 5.41872C55.5997 9.03372 56.4654 14.5312 58.1967 25.5281C59.9299 36.5231 60.7955 42.0225 58.9187 46.4343C57.941 48.7362 56.4596 50.787 54.5848 52.4344C50.9897 55.5919 45.5196 56.4619 34.5813 58.2037C23.6449 59.9456 18.1749 60.8156 13.785 58.9294C11.4958 57.9457 9.45653 56.4563 7.81867 54.5718C4.67693 50.9568 3.8094 45.4593 2.07622 34.4625ZM21.3689 53.9887C24.2979 53.8106 28.0702 53.2162 33.6541 52.3275C39.2399 51.4387 43.0066 50.8312 45.8498 50.0906C48.6017 49.3725 49.8703 48.6731 50.6893 47.9531C51.8943 46.8941 52.8463 45.5758 53.4747 44.0962C53.9038 43.0912 54.1744 41.6625 54.0027 38.8087C53.8255 35.865 53.2341 32.0718 52.3498 26.4581C51.4654 20.8443 50.8628 17.055 50.1259 14.1993C49.4114 11.4318 48.7136 10.1568 47.9991 9.33372C46.9461 8.12222 45.635 7.16476 44.1633 6.53247C43.1633 6.10122 41.7417 5.82934 38.9022 6.00184C35.9731 6.17997 32.2027 6.77434 26.6169 7.66309C21.033 8.55372 17.2644 9.15934 14.4231 9.89997C11.6694 10.6181 10.4026 11.3193 9.58357 12.0375C8.37799 13.0963 7.4253 14.4146 6.7963 15.8943C6.36907 16.8993 6.09855 18.3281 6.27019 21.1818C6.44743 24.1275 7.03697 27.9187 7.92315 33.5325C8.80747 39.1462 9.41007 42.9356 10.147 45.7912C10.8615 48.5587 11.5574 49.8337 12.2738 50.6569C13.3268 51.8683 14.6379 52.8258 16.1096 53.4581C17.1096 53.8893 18.5275 54.1612 21.3689 53.9887Z" fill="url(#paint1_linear_205_4158)"/>
</g>
</g>
<defs>
<linearGradient id="paint0_linear_205_4158" x1="23.6747" y1="-5.44578e-05" x2="33.2432" y2="59.4844" gradientUnits="userSpaceOnUse">
<stop stop-color="#66E3FF"/>
<stop offset="1" stop-color="#7064F9"/>
</linearGradient>
<linearGradient id="paint1_linear_205_4158" x1="23.6748" y1="-3.29794e-05" x2="33.2433" y2="59.4844" gradientUnits="userSpaceOnUse">
<stop stop-color="#66E3FF"/>
<stop offset="1" stop-color="#7064F9"/>
</linearGradient>
<clipPath id="clip0_205_4158">
<rect width="343.279" height="60" fill="white"/>
</clipPath>
</defs>
</svg>
