<svg width="316" height="96" viewBox="0 0 316 96" fill="none" xmlns="http://www.w3.org/2000/svg">
<g clip-path="url(#clip0_205_4154)">
<path d="M31.2744 28.6134L2.02392 11.8134C1.81743 11.6955 1.58303 11.6338 1.34458 11.6347C1.10613 11.6355 0.872152 11.6987 0.666482 11.8179C0.460812 11.9372 0.290794 12.1082 0.173742 12.3135C0.0566903 12.5188 -0.00321296 12.7511 0.000132856 12.9867V59.7333C0.000132856 60.2133 0.269972 60.64 0.67473 60.88L11.6032 67.2267C11.8077 67.3434 12.0396 67.405 12.2758 67.4053C12.5119 67.4057 12.744 67.3448 12.9489 67.2287C13.1538 67.1126 13.3242 66.9454 13.4432 66.7439C13.5622 66.5423 13.6256 66.3134 13.627 66.08V35.5734C13.6285 35.4805 13.6545 35.3896 13.7025 35.3097C13.7505 35.2298 13.8187 35.1637 13.9005 35.1178C13.9823 35.072 14.0748 35.0482 14.1688 35.0485C14.2628 35.0489 14.3551 35.0736 14.4365 35.12L31.3014 44.6667C32.1242 45.1307 33.0561 45.3726 34.0034 45.3679C34.9508 45.3632 35.8802 45.1122 36.6982 44.64L53.1584 35.12C53.2398 35.0736 53.3321 35.0489 53.4261 35.0485C53.5201 35.0482 53.6126 35.072 53.6943 35.1178C53.7761 35.1637 53.8444 35.2298 53.8924 35.3097C53.9404 35.3896 53.9664 35.4805 53.9679 35.5734V50.5067C53.966 50.9624 53.8459 51.41 53.6192 51.8068C53.3924 52.2036 53.0665 52.5364 52.6727 52.7734L35.7268 63.0667C35.5279 63.1863 35.3637 63.3548 35.2502 63.5558C35.1367 63.7567 35.0778 63.9832 35.0792 64.2134V79.2533C35.0792 79.7333 35.322 80.16 35.6998 80.4L57.9075 94.2667C58.7542 94.7939 59.7325 95.0781 60.7332 95.0875C61.7339 95.0969 62.7175 94.8312 63.5741 94.32L91.7993 77.7867C92.6088 77.3123 93.2788 76.637 93.7427 75.8278C94.2066 75.0185 94.4482 74.1034 94.4437 73.1734V44.3467C94.4451 44.1093 94.3824 43.8759 94.262 43.6706C94.1416 43.4652 93.968 43.2953 93.7589 43.1784C93.5499 43.0616 93.3131 43.0019 93.073 43.0057C92.8328 43.0095 92.5981 43.0766 92.3929 43.2L83.4613 48.5334C82.6685 49.004 82.0114 49.6681 81.5531 50.462C81.0947 51.2558 80.8505 52.1527 80.8438 53.0667V67.5467C80.8424 67.7794 80.7794 68.0076 80.661 68.2088C80.5427 68.41 80.3731 68.577 80.1692 68.6934L63.4662 78.4267C62.6307 78.9108 61.6787 79.1638 60.7102 79.1591C59.7416 79.1544 58.7922 78.8922 57.9615 78.4L48.9759 73.0667C48.7835 72.9503 48.6238 72.7882 48.5112 72.5951C48.3986 72.4019 48.3368 72.184 48.3314 71.9612C48.3261 71.7384 48.3773 71.5178 48.4804 71.3196C48.5836 71.1214 48.7354 70.952 48.9219 70.8267L65.1662 60.24C65.9124 59.7544 66.5249 59.0933 66.9488 58.316C67.3726 57.5387 67.5946 56.6696 67.5947 55.7867V12.9867C67.5933 12.7533 67.5299 12.5244 67.411 12.3228C67.292 12.1213 67.1215 11.9541 66.9166 11.838C66.7118 11.7219 66.4797 11.661 66.2435 11.6614C66.0074 11.6617 65.7755 11.7233 65.571 11.84L36.6982 28.6134C35.8746 29.0864 34.9389 29.3356 33.9863 29.3356C33.0337 29.3356 32.0981 29.0864 31.2744 28.6134Z" fill="#007FFF"/>
<path d="M94.4431 14.2933V23.4133C94.445 24.3197 94.213 25.2116 93.7692 26.0048C93.3254 26.798 92.6844 27.4663 91.9067 27.9467L83.002 33.4133C82.7968 33.5368 82.5621 33.6038 82.3219 33.6076C82.0818 33.6114 81.845 33.5518 81.636 33.4349C81.427 33.318 81.2533 33.1482 81.1329 32.9428C81.0125 32.7374 80.9498 32.504 80.9512 32.2667V22.72C80.9522 21.7847 81.202 20.8662 81.6756 20.0564C82.1492 19.2467 82.83 18.5743 83.6496 18.1067L92.4193 13.1467C92.6238 13.03 92.8558 12.9684 93.0919 12.968C93.3281 12.9677 93.5602 13.0286 93.765 13.1446C93.9699 13.2607 94.1403 13.4279 94.2593 13.6295C94.3783 13.8311 94.4417 14.06 94.4431 14.2933Z" fill="#007FFF"/>
<path d="M135.944 70.6666V22.1333H148.087L168.487 50.1333L159.528 50.08L179.982 22.1333H191.963V70.6666H178.633V57.28C178.633 53.3066 178.714 49.6533 178.903 46.3466C179.092 42.96 179.469 39.5466 180.036 36.1333L181.439 40.4266L166.22 59.84H161.579L146.414 40.24L147.979 36.1333C148.519 39.4666 148.897 42.8 149.085 46.1333C149.274 49.44 149.355 53.1733 149.355 57.28V70.6666H135.971H135.944ZM230.064 71.0933C225.288 71.0933 221.051 70.16 217.382 68.32C213.853 66.5874 210.882 63.9191 208.801 60.6133C206.77 57.2366 205.733 53.3672 205.806 49.44V22.1333H219.837V49.04C219.837 51.0666 220.269 52.8533 221.159 54.3733C222.05 55.8933 223.264 57.0666 224.802 57.92C226.422 58.7634 228.233 59.1855 230.064 59.1466C232.115 59.1466 233.95 58.7466 235.542 57.92C237.161 57.0666 238.429 55.8933 239.32 54.3733C240.264 52.8533 240.723 51.0666 240.723 49.04V22.1333H254.35V49.44C254.411 53.3475 253.355 57.1927 251.302 60.5329C249.249 63.8731 246.284 66.5724 242.747 68.32C239.158 70.16 234.921 71.0933 230.064 71.0933ZM268.948 70.6666V59.1466H280.254V33.6533H268.948V22.1333H305.376V33.6533H294.124V59.1466H305.349V70.6666H268.921H268.948Z" fill="white"/>
</g>
<defs>
<clipPath id="clip0_205_4154">
<rect width="315.711" height="96" fill="white"/>
</clipPath>
</defs>
</svg>
