<svg width="299" height="88" viewBox="0 0 299 88" fill="none" xmlns="http://www.w3.org/2000/svg">
<g clip-path="url(#clip0_203_4100)">
<g clip-path="url(#clip1_203_4100)">
<path d="M177.628 73.9414H186.697C186.038 70.532 185.701 67.2886 185.701 63.3804V47.0811C185.701 36.1041 179.362 30.6988 167.989 30.6988C157.688 30.6988 150.683 36.021 149.777 45.0853H159.913C160.243 41.1768 163.045 38.5989 167.66 38.5989C172.44 38.5989 175.571 41.0937 175.571 46.2495V48.2453L163.045 49.6591C154.557 50.657 147.964 54.1495 147.964 62.6317C147.964 70.2824 153.897 74.8559 162.056 74.8559C168.731 74.8559 174.362 72.1117 176.695 67.2886C176.798 70.1782 177.628 73.9414 177.628 73.9414ZM164.94 67.4551C160.738 67.4551 158.43 65.3759 158.43 62.0498C158.43 57.6424 161.809 56.6445 166.259 56.0623L175.571 54.9813V57.559C175.571 64.2118 170.38 67.4551 164.94 67.4551ZM221.612 73.9414H231.996V14.08H221.447V38.5989C219.469 34.3578 214.69 30.6988 208.179 30.6988C196.862 30.6988 189.007 39.7631 189.007 52.819C189.007 65.9581 196.862 74.9394 208.179 74.9394C214.525 74.9394 219.552 71.4465 221.612 67.2056V73.9414ZM221.694 53.5673C221.694 61.8002 217.821 67.1225 211.146 67.1225C204.306 67.1225 199.994 61.5507 199.994 52.819C199.994 44.1705 204.306 38.5157 211.146 38.5157C217.821 38.5157 221.694 43.8379 221.694 52.0706V53.5673ZM238.156 24.5451H249.364V14.1502H238.156V24.5451ZM238.485 73.9414H249.034V31.6967H238.485V73.9414ZM262.208 73.9414L272.674 59.4718L283.058 73.9414H295.172L278.937 51.821L293.854 31.6967H282.563L273.251 44.7526L264.021 31.6967H251.907L266.988 52.3202L250.918 73.9414H262.208Z" fill="white"/>
<path fill-rule="evenodd" clip-rule="evenodd" d="M110.036 52.8591V73.92H99.667V17.6H124.431C138.108 17.6 146.281 23.7526 146.281 35.269C146.281 44.0246 140.618 49.2307 134.156 51.2814L148.435 73.92H136.869L123.867 52.8591H110.036ZM135.831 35.269C135.831 41.4216 131.843 44.6557 123.947 44.6557H110.036V25.8823H123.235C131.487 25.8823 135.831 29.1164 135.831 35.269Z" fill="white"/>
</g>
<path d="M42.7145 88.0001C26.9875 88.0001 14.2383 75.3925 14.2383 59.8401C14.2383 44.2876 26.9875 31.6801 42.7145 31.6801V88.0001Z" fill="white"/>
<path d="M42.7145 0H14.2383V28.16H42.7145V0Z" fill="white"/>
<path d="M60.5115 28.16C68.3749 28.16 74.7496 21.8562 74.7496 14.08C74.7496 6.30383 68.3749 0 60.5115 0C52.6482 0 46.2734 6.30383 46.2734 14.08C46.2734 21.8562 52.6482 28.16 60.5115 28.16Z" fill="white"/>
</g>
<defs>
<clipPath id="clip0_203_4100">
<rect width="299" height="88" fill="white"/>
</clipPath>
<clipPath id="clip1_203_4100">
<rect width="199.333" height="63.36" fill="white" transform="translate(99.667 14.08)"/>
</clipPath>
</defs>
</svg>
