<svg width="381" height="48" viewBox="0 0 381 48" fill="none" xmlns="http://www.w3.org/2000/svg">
<g clip-path="url(#clip0_204_4107)">
<path fill-rule="evenodd" clip-rule="evenodd" d="M39.2634 0C28.7931 0 22.2492 5.23636 19.6317 15.7091C23.558 10.4727 28.1387 8.50909 33.3739 9.81818C36.3608 10.5644 38.4955 12.7331 40.8586 15.1316C44.7079 19.04 49.1635 23.5636 58.895 23.5636C69.3653 23.5636 75.9092 18.3273 78.5267 7.85455C74.6004 13.0909 70.0196 15.0545 64.7845 13.7455C61.7976 12.9993 59.6629 10.8305 57.2998 8.432C53.4505 4.52364 48.9949 0 39.2634 0ZM19.6317 23.5636C9.16145 23.5636 2.61756 28.8 0 39.2727C3.92634 34.0364 8.50706 32.0727 13.7422 33.3818C16.7291 34.1295 18.8639 36.2967 21.2269 38.6953C25.0762 42.6036 29.5319 47.1273 39.2634 47.1273C49.7336 47.1273 56.2775 41.8909 58.895 31.4182C54.9687 36.6545 50.388 38.6182 45.1529 37.3091C42.1659 36.5629 40.0312 34.3942 37.6681 31.9956C33.8188 28.0873 29.3632 23.5636 19.6317 23.5636Z" fill="#38BDF8"/>
<path fill-rule="evenodd" clip-rule="evenodd" d="M117.784 19.8574H110.932V33.1228C110.932 36.6603 113.253 36.605 117.784 36.3839V41.7454C108.611 42.8508 104.964 40.3083 104.964 33.1228V19.8574H99.8799V14.109H104.964V6.68497L110.932 4.91624V14.109H117.784V19.8574ZM143.904 14.109H149.872V41.7454H143.904V37.7657C141.804 40.6952 138.544 42.4639 134.234 42.4639C126.719 42.4639 120.474 36.1076 120.474 27.9272C120.474 19.6916 126.719 13.3904 134.234 13.3904C138.544 13.3904 141.804 15.1592 143.904 18.0334V14.109ZM135.173 36.7708C140.147 36.7708 143.904 33.0676 143.904 27.9272C143.904 22.7868 140.147 19.0836 135.173 19.0836C130.2 19.0836 126.442 22.7868 126.442 27.9272C126.442 33.0676 130.2 36.7708 135.173 36.7708ZM159.819 9.96351C157.719 9.96351 156.006 8.19478 156.006 6.14969C156.008 5.1388 156.41 4.16985 157.124 3.45505C157.84 2.74022 158.808 2.3378 159.819 2.33588C160.83 2.3378 161.798 2.74022 162.514 3.45505C163.228 4.16985 163.631 5.1388 163.632 6.14969C163.632 8.19478 161.919 9.96351 159.819 9.96351ZM156.835 41.7454V14.109H162.803V41.7454H156.835ZM169.711 41.7454V1.39624H175.679V41.7454H169.711ZM214.415 14.109H220.715L212.039 41.7454H206.182L200.435 23.1185L194.633 41.7454H188.775L180.099 14.109H186.399L191.759 33.1781L197.561 14.109H203.253L209 33.1781L214.415 14.109ZM228.12 9.96351C226.02 9.96351 224.307 8.19478 224.307 6.14969C224.308 5.1388 224.711 4.16985 225.425 3.45505C226.141 2.74022 227.109 2.3378 228.12 2.33588C229.131 2.3378 230.099 2.74022 230.814 3.45505C231.528 4.16985 231.931 5.1388 231.933 6.14969C231.933 8.19478 230.22 9.96351 228.12 9.96351ZM225.136 41.7454V14.109H231.104V41.7454H225.136ZM252.545 13.3904C258.734 13.3904 263.154 17.5912 263.154 24.7767V41.7454H257.186V25.3847C257.186 21.1839 254.755 18.973 250.997 18.973C247.074 18.973 243.979 21.2945 243.979 26.9323V41.7454H238.011V14.109H243.979V17.6465C245.803 14.7723 248.787 13.3904 252.545 13.3904ZM291.447 3.05442H297.415V41.7454H291.447V37.7657C289.347 40.6952 286.087 42.4639 281.777 42.4639C274.262 42.4639 268.017 36.1076 268.017 27.9272C268.017 19.6916 274.262 13.3904 281.777 13.3904C286.087 13.3904 289.347 15.1592 291.447 18.0334V3.05442ZM282.716 36.7708C287.69 36.7708 291.447 33.0676 291.447 27.9272C291.447 22.7868 287.69 19.0836 282.716 19.0836C277.743 19.0836 273.985 22.7868 273.985 27.9272C273.985 33.0676 277.743 36.7708 282.716 36.7708ZM317.419 42.4639C309.075 42.4639 302.831 36.1076 302.831 27.9272C302.831 19.6916 309.075 13.3904 317.419 13.3904C322.835 13.3904 327.532 16.2094 329.742 20.5207L324.603 23.5054C323.387 20.9076 320.68 19.2494 317.364 19.2494C312.501 19.2494 308.799 22.9527 308.799 27.9272C308.799 32.9017 312.501 36.605 317.364 36.605C320.68 36.605 323.387 34.8916 324.714 32.349L329.853 35.2785C327.532 39.645 322.835 42.4639 317.419 42.4639ZM339.689 21.7367C339.689 26.7665 354.554 23.7265 354.554 33.9519C354.554 39.4792 349.746 42.4639 343.778 42.4639C338.252 42.4639 334.273 39.9767 332.505 35.997L337.644 33.0123C338.528 35.4996 340.739 36.9919 343.778 36.9919C346.431 36.9919 348.475 36.1076 348.475 33.8967C348.475 28.9774 333.61 31.741 333.61 21.8472C333.61 16.6516 338.086 13.3904 343.723 13.3904C348.254 13.3904 352.012 15.4908 353.946 19.1388L348.917 21.9577C347.923 19.8021 345.988 18.8072 343.723 18.8072C341.568 18.8072 339.689 19.7468 339.689 21.7367ZM365.164 21.7367C365.164 26.7665 380.028 23.7265 380.028 33.9519C380.028 39.4792 375.221 42.4639 369.253 42.4639C363.727 42.4639 359.748 39.9767 357.98 35.997L363.119 33.0123C364.003 35.4996 366.213 36.9919 369.253 36.9919C371.905 36.9919 373.95 36.1076 373.95 33.8967C373.95 28.9774 359.085 31.741 359.085 21.8472C359.085 16.6516 363.561 13.3904 369.197 13.3904C373.729 13.3904 377.486 15.4908 379.42 19.1388L374.392 21.9577C373.397 19.8021 371.463 18.8072 369.197 18.8072C367.042 18.8072 365.164 19.7468 365.164 21.7367Z" fill="white"/>
</g>
<defs>
<clipPath id="clip0_204_4107">
<rect width="381" height="48" fill="white"/>
</clipPath>
</defs>
</svg>
